<svg width="362" height="362" viewBox="0 0 362 362" fill="none" xmlns="http://www.w3.org/2000/svg">
<g clip-path="url(#clip0_9_120)">
<path d="M0 0C119.46 0 238.92 0 362 0C362 119.46 362 238.92 362 362C242.54 362 123.08 362 0 362C0 242.54 0 123.08 0 0ZM9 9C9 122.52 9 236.04 9 353C122.52 353 236.04 353 353 353C353 239.48 353 125.96 353 9C239.48 9 125.96 9 9 9Z" fill="#555AE4"/>
<path d="M51.0001 102C57.2701 102 63.5401 102 70.0001 102C70.3301 124.44 70.6601 146.88 71.0001 170C75.2901 164.39 79.5801 158.78 84.0001 153C86.1173 150.235 86.1173 150.235 88.2774 147.414C94.1299 139.761 99.9618 132.098 105.646 124.319C107.388 121.942 109.152 119.582 110.918 117.223C112.821 114.666 114.591 112.099 116.238 109.371C118.357 106.15 119.839 104.214 123 102C126.119 101.482 129.147 101.591 132.297 101.73C133.553 101.76 133.553 101.76 134.834 101.789C136.89 101.84 138.945 101.917 141 102C141.023 115.021 141.041 128.042 141.052 141.063C141.057 147.109 141.064 153.154 141.075 159.2C141.086 165.029 141.092 170.858 141.095 176.687C141.097 178.916 141.1 181.145 141.106 183.375C141.113 186.485 141.114 189.596 141.114 192.707C141.117 193.638 141.121 194.57 141.124 195.529C141.114 201.886 141.114 201.886 140 203C134.06 203 128.12 203 122 203C121.67 180.23 121.34 157.46 121 134C115.72 140.93 110.44 147.86 105 155C100.465 160.941 100.465 160.941 98.6656 163.298C94.0435 169.354 89.4289 175.415 84.8711 181.52C84.2003 182.418 83.5294 183.316 82.8382 184.242C81.572 185.94 80.308 187.64 79.0467 189.342C77.9118 190.865 76.7671 192.381 75.6111 193.888C74.5556 195.272 73.5276 196.677 72.5315 198.104C69.1225 202.679 69.1225 202.679 66.0479 203.558C63.8821 203.724 61.8525 203.665 59.6876 203.5C58.9599 203.477 58.2322 203.454 57.4825 203.43C52.2137 203.214 52.2137 203.214 51.0001 202C50.9047 198.895 50.8745 195.812 50.8865 192.707C50.8864 191.731 50.8862 190.756 50.8861 189.751C50.8868 186.51 50.8946 183.268 50.9024 180.027C50.9043 177.787 50.9057 175.546 50.9067 173.306C50.9105 167.395 50.9203 161.485 50.9314 155.575C50.9416 149.549 50.9462 143.524 50.9512 137.498C50.962 125.665 50.9796 113.833 51.0001 102Z" fill="#555AE4"/>
<path d="M228 105C228.96 105.424 229.921 105.848 230.91 106.285C243.178 112.343 250.739 122.129 256.098 134.543C260.358 147.325 259.39 162.742 253.676 174.793C246.648 188.462 236.442 196.65 222 202C207.512 206.613 191.478 204.606 177.875 198.375C165.126 191.609 156.347 181.142 151.727 167.543C147.879 154.076 149.355 139.754 155.688 127.312C163.166 114.574 173.927 106.467 188 102C200.874 99.0816 215.907 99.6161 228 105ZM178 128C169.748 138.138 168.857 148.371 170 161C171.928 170.214 178.216 177.826 186 182.969C195.026 187.623 205.372 188.408 215.125 185.875C223.632 182.972 230.702 178.009 235 170C239.69 158.59 240.687 148.51 236 137C231.907 128.427 225.026 121.884 216.039 118.656C201.903 115.604 188.531 117.727 178 128Z" fill="#555AE4"/>
<path d="M325.638 85.1877C329.015 86.3493 332.152 87.9187 335.312 89.5625C335.958 89.8919 336.603 90.2212 337.268 90.5605C338.848 91.3682 340.424 92.1834 342 93C342 93.66 342 94.32 342 95C341.398 95.2861 340.795 95.5722 340.174 95.8669C337.324 97.2219 334.474 98.5793 331.625 99.9375C330.59 100.431 329.554 100.924 328.488 101.433C321.078 104.976 313.716 108.604 306.411 112.357C301.213 115 301.213 115 299 115C299 144.04 299 173.08 299 203C293.06 203 287.12 203 281 203C280.67 175.28 280.34 147.56 280 119C272.41 118.67 264.82 118.34 257 118C251.546 113.462 248.108 110.353 244 105C243.34 104.67 242.68 104.34 242 104C242 103.34 242 102.68 242 102C243.317 102.053 244.634 102.107 245.99 102.162C274.197 103.157 296.381 102.286 320.272 86.3394C323 85 323 85 325.638 85.1877Z" fill="#555AE4"/>
<path d="M227 236C228.98 236 230.96 236 233 236C233.33 240.29 233.66 244.58 234 249C234.568 248.062 235.137 247.123 235.723 246.156C236.501 244.937 237.281 243.718 238.062 242.5C238.433 241.88 238.804 241.26 239.186 240.621C240.348 238.844 240.348 238.844 243 236C245.31 236 247.62 236 250 236C250 243.92 250 251.84 250 260C247.69 260 245.38 260 243 260C243 255.71 243 251.42 243 247C241.744 248.194 241.744 248.194 240.145 250.723C239.367 251.836 238.59 252.949 237.812 254.062C237.438 254.63 237.064 255.198 236.678 255.783C235.52 257.41 235.52 257.41 233 260C231.02 260 229.04 260 227 260C227 252.08 227 244.16 227 236Z" fill="#555AE4"/>
<path d="M129 236C131.537 235.897 134.074 235.794 136.688 235.688C137.477 235.642 138.267 235.596 139.081 235.55C143.205 235.469 144.634 235.716 148.031 238.352C150 241 150 241 149.812 243.688C149.544 244.451 149.276 245.214 149 246C148.815 248.324 148.815 248.324 151 251C150.809 254.063 150.612 256.206 148.714 258.669C146.567 260.337 145.462 260.35 142.77 260.293C142.046 260.285 141.323 260.278 140.577 260.27C139.665 260.243 138.753 260.216 137.812 260.188C134.904 260.126 131.996 260.064 129 260C129 252.08 129 244.16 129 236ZM135 241C135 242.65 135 244.3 135 246C139.141 246.21 139.141 246.21 143 245C143 243.68 143 242.36 143 241C140.36 241 137.72 241 135 241ZM135 250C135 251.98 135 253.96 135 256C139.455 255.505 139.455 255.505 144 255C144 253.68 144 252.36 144 251C141.043 249.522 138.258 249.94 135 250Z" fill="#555AE4"/>
<path d="M101 236C102.98 236 104.96 236 107 236C107.33 240.29 107.66 244.58 108 249C108.638 248.145 109.276 247.291 109.934 246.41C110.768 245.294 111.603 244.178 112.438 243.062C112.858 242.499 113.279 241.935 113.713 241.354C116.887 237.113 116.887 237.113 118 236C119.98 236 121.96 236 124 236C124 243.92 124 251.84 124 260C122.02 260 120.04 260 118 260C117.505 253.565 117.505 253.565 117 247C116.362 247.855 115.724 248.709 115.066 249.59C114.232 250.706 113.397 251.822 112.562 252.938C112.142 253.501 111.721 254.065 111.287 254.646C108.113 258.887 108.113 258.887 107 260C105.02 260 103.04 260 101 260C101 252.08 101 244.16 101 236Z" fill="#555AE4"/>
<path d="M276 236C282.27 236 288.54 236 295 236C295 237.65 295 239.3 295 241C291.04 241 287.08 241 283 241C283 242.32 283 243.64 283 245C286.3 245 289.6 245 293 245C293.382 246.656 293.714 248.325 294 250C293 251 293 251 290.715 251.098C289.34 251.08 289.34 251.08 287.938 251.062C287.018 251.053 286.099 251.044 285.152 251.035C284.442 251.024 283.732 251.012 283 251C283 252.32 283 253.64 283 255C287.29 255 291.58 255 296 255C296 256.65 296 258.3 296 260C289.4 260 282.8 260 276 260C276 252.08 276 244.16 276 236Z" fill="#555AE4"/>
<path d="M154 236C160.27 236 166.54 236 173 236C173 237.65 173 239.3 173 241C169.04 241 165.08 241 161 241C161 242.32 161 243.64 161 245C164.3 245 167.6 245 171 245C171.382 246.656 171.714 248.325 172 250C171 251 171 251 168.715 251.098C167.34 251.08 167.34 251.08 165.938 251.062C165.018 251.053 164.099 251.044 163.152 251.035C162.442 251.024 161.732 251.012 161 251C161 251.99 161 252.98 161 254C165.29 254.33 169.58 254.66 174 255C174 256.65 174 258.3 174 260C167.4 260 160.8 260 154 260C154 252.08 154 244.16 154 236Z" fill="#555AE4"/>
<path d="M73 236C74.98 236 76.96 236 79 236C79 238.97 79 241.94 79 245C82.63 245 86.26 245 90 245C90 242.03 90 239.06 90 236C91.98 236 93.96 236 96 236C96 243.92 96 251.84 96 260C94.02 260 92.04 260 90 260C88.4655 256.931 89.4502 254.299 90 251C86.37 251 82.74 251 79 251C79 253.97 79 256.94 79 260C77.02 260 75.04 260 73 260C73 252.08 73 244.16 73 236Z" fill="#555AE4"/>
<path d="M177 236C180.805 235.876 180.805 235.876 184.688 235.75C185.872 235.695 185.872 235.695 187.081 235.64C190.842 235.581 192.655 235.79 195.957 237.801C198.773 240.832 199 242.906 199 247C197.717 250.209 196.733 251.572 193.75 253.313C190.428 254.143 187.41 254.134 184 254C184 255.98 184 257.96 184 260C181.69 260 179.38 260 177 260C177 252.08 177 244.16 177 236ZM184 241C184 243.64 184 246.28 184 249C188.342 248.815 188.342 248.815 192 247C192.041 245.334 192.043 243.666 192 242C189.291 240.646 186.991 240.935 184 241Z" fill="#555AE4"/>
<path d="M222.5 237.438C224 239 224 239 224 241C221.625 242.063 221.625 242.063 219 243C218.34 242.67 217.68 242.34 217 242C212.949 241.741 211.457 241.696 208 244C207.562 245.905 207.562 245.905 207.688 248C207.691 248.701 207.695 249.403 207.699 250.125C207.851 252.242 207.851 252.242 210 254C212.703 254.087 215.307 254.091 218 254C222 254 222 254 224 255C223.042 257.612 222.309 258.803 219.938 260.313C215.205 261.42 210.503 261.373 206.156 258.988C202.899 256.458 200.863 254.029 200 250C200.08 245.597 200.748 243.382 203.188 239.688C208.787 234.336 215.682 233.517 222.5 237.438Z" fill="#555AE4"/>
<path d="M47 236C48.98 236 50.96 236 53 236C53.8411 237.433 54.6727 238.872 55.5 240.312C55.9641 241.113 56.4281 241.914 56.9062 242.738C58 245 58 245 58 248C58.66 248 59.32 248 60 248C60.0825 247.319 60.165 246.639 60.25 245.938C61.2233 242.125 62.9581 239.359 65 236C66.98 236 68.96 236 71 236C69.2409 240.722 66.9954 245.154 64.6875 249.625C64.3092 250.388 63.9308 251.151 63.541 251.938C61.3162 256.229 59.6601 259.067 55 261C52.1875 261.188 52.1875 261.188 50 261C48.875 257.25 48.875 257.25 50 255C52.5625 254.375 52.5625 254.375 55 254C54.4225 252.868 53.845 251.736 53.25 250.57C52.4998 249.089 51.7498 247.607 51 246.125C50.6184 245.379 50.2369 244.632 49.8438 243.863C49.4828 243.148 49.1219 242.432 48.75 241.695C48.4148 241.035 48.0797 240.376 47.7344 239.696C47 238 47 238 47 236Z" fill="#555AE4"/>
<path d="M297 236C303.93 236 310.86 236 318 236C318 237.65 318 239.3 318 241C315.69 241 313.38 241 311 241C311 247.27 311 253.54 311 260C308.69 260 306.38 260 304 260C304 254.06 304 248.12 304 242C301.69 241.67 299.38 241.34 297 241C297 239.35 297 237.7 297 236Z" fill="#555AE4"/>
<path d="M252 236C259.26 236 266.52 236 274 236C274 237.65 274 239.3 274 241C271.36 241 268.72 241 266 241C266 247.27 266 253.54 266 260C264.02 260 262.04 260 260 260C260 253.73 260 247.46 260 241C257.36 241 254.72 241 252 241C252 239.35 252 237.7 252 236Z" fill="#555AE4"/>
</g>
<defs>
<clipPath id="clip0_9_120">
<rect width="362" height="362" fill="white"/>
</clipPath>
</defs>
</svg>
